Coordinates
version=1
nRows=17
nColumns=36
inDegrees=yes

Units are S.I. units (second, meters, Newtons, ...)
If the header above contains a line with 'inDegrees', this indicates whether rotational values are in degrees (yes) or radians (no).

endheader
time	pelvis_tilt	pelvis_list	pelvis_rotation	pelvis_tx	pelvis_ty	pelvis_tz	hip_flexion_r	hip_adduction_r	hip_rotation_r	knee_angle_r	knee_angle_r_beta	ankle_angle_r	subtalar_angle_r	mtp_angle_r	hip_flexion_l	hip_adduction_l	hip_rotation_l	knee_angle_l	knee_angle_l_beta	ankle_angle_l	subtalar_angle_l	mtp_angle_l	lumbar_extension	lumbar_bending	lumbar_rotation	arm_flex_r	arm_add_r	arm_rot_r	elbow_flex_r	pro_sup_r	arm_flex_l	arm_add_l	arm_rot_l	elbow_flex_l	pro_sup_l
      5.88333330	     -5.70143291	     10.86494274	     -2.55899150	      0.63104777	      0.75266604	     -0.13215960	     73.53798760	    -21.30594536	     13.78628627	     39.28226160	      0.68560480	     -7.60899876	      3.25422549	     -7.49999987	     59.39608484	     16.85087995	     -5.99796037	     75.67011364	      1.32069263	     20.97947938	    -15.12333394	     -7.49999987	    -43.06879225	     -8.38625471	     -1.16744700	     75.57672379	      5.11211171	     69.01570555	    111.06663244	     82.26546806	     71.17259342	     -1.77649714	     62.30204956	    125.05897245	     89.76471447
      5.90000000	     -6.03429100	     11.03097479	     -2.60724324	      0.63073069	      0.75220905	     -0.13195726	     74.05371791	    -21.17801757	     14.02994855	     39.11397646	      0.68266767	     -7.42652033	      3.78952443	     -7.49999987	     59.85120315	     16.65488225	     -6.28967553	     76.12316148	      1.32859980	     21.67245239	    -14.17221351	     -7.49999987	    -42.95760933	     -8.61855091	     -1.52501492	     74.69272939	      5.95363551	     69.01178748	    110.91063410	     81.41123282	     70.54333546	     -2.21440044	     62.42387262	    125.62820215	     88.78497714
      5.91666670	     -6.27397736	     11.04404335	     -2.52027835	      0.62387128	      0.75102937	     -0.13033223	     74.39147322	    -21.06409971	     14.16135275	     39.06634846	      0.68183641	     -7.49381775	      4.19236823	     -7.49999987	     60.27885470	     16.38337437	     -6.49147386	     76.48326410	      1.33488478	     21.73886060	    -13.98402216	     -7.49999987	    -42.99009955	     -8.76681790	     -1.13878893	     75.61188904	      5.77626254	     68.39435723	    110.42465959	     81.44435675	     70.67425633	     -2.61070730	     62.22472729	    125.55578028	     88.78079365
      5.93333330	     -6.36177664	     11.10234598	     -2.48795075	      0.62359723	      0.75660111	     -0.13029142	     74.43752061	    -21.08968368	     14.01881280	     38.72397048	      0.67586078	     -7.46240351	      5.18175285	     -7.49999987	     60.39475788	     16.18110060	     -6.69620644	     76.59467577	      1.33682928	     21.92376974	    -13.45978412	     -7.49999987	    -43.11885189	     -8.85473078	     -1.22180824	     75.65027145	      5.83914171	     68.05579061	    108.92613626	     81.53171960	     70.70298592	     -3.02532418	     62.22343741	    124.76970829	     88.69483216
      5.95000000	     -6.58276578	     11.07117938	     -2.47552820	      0.62972396	      0.75995725	     -0.12569547	     74.26230112	    -21.09272657	     13.74834624	     38.10582448	      0.66507210	     -7.44767321	      6.08747408	     -7.49999987	     60.33862606	     15.94190832	     -6.72125184	     76.48261974	      1.33487353	     22.14455157	    -12.91218862	     -7.49999987	    -43.08767731	     -8.87536352	     -1.28162349	     75.13609394	      6.95385563	     68.67047567	    107.65127337	     82.21971163	     69.50373443	     -4.14994373	     61.67248393	    125.41131092	     88.35442523
      5.96666670	     -6.75281849	     11.04310809	     -2.62916627	      0.62940378	      0.76003695	     -0.12568199	     74.00218690	    -21.02124982	     13.46332797	     37.48851065	      0.65429794	     -7.44565940	      6.91975208	     -7.49999987	     60.15055487	     15.65243244	     -6.68373453	     76.22641620	      1.33040194	     22.32184917	    -12.49535085	     -7.49999987	    -42.74954832	     -9.22260303	     -0.93115259	     74.73755880	      7.08526640	     68.88546524	    107.77496679	     81.52332391	     68.68075421	     -4.24914205	     61.21070221	    125.72244475	     87.34090502
      5.98333330	     -6.75879266	     10.97265884	     -2.59069242	      0.62443141	      0.76490400	     -0.12964943	     73.66681327	    -21.17097859	     13.10460050	     37.08308529	      0.64722194	     -7.24999507	      7.96495012	     -7.49999987	     59.94634463	     15.56548932	     -6.52183674	     75.84930668	      1.32382014	     22.31514804	    -12.09287564	     -7.49999987	    -42.66503687	     -9.24094398	     -1.34030889	     74.13348292	      7.29803572	     68.74505570	    107.32438616	     81.72061457	     68.77153250	     -3.97833165	     60.59621302	    125.03228138	     87.30394501
      6.00000000	     -6.83492363	     10.87949614	     -2.61386136	      0.62995309	      0.76314021	     -0.12558745	     73.37892130	    -21.20711413	     12.83246404	     36.63182265	      0.63934592	     -7.03139696	      8.76434160	     -7.49999987	     59.70223697	     15.43334106	     -6.39546631	     75.55812323	      1.31873803	     22.59311368	    -11.59671373	     -7.49999987	    -42.14740949	     -9.36125778	     -1.20651901	     73.02445887	      7.96164865	     68.71295826	    107.14059883	     83.97461851	     67.69774140	     -4.35617729	     60.42032228	    126.17613213	     87.52655171
      6.01666670	     -6.78664516	     10.84869739	     -2.65763774	      0.62995403	      0.76895954	     -0.12516259	     72.91186248	    -21.36264592	     12.47356234	     35.98951728	      0.62813557	     -6.77639434	      9.59880583	     -7.49999987	     59.22080572	     15.44746843	     -6.24230429	     75.13775568	      1.31140123	     22.62619469	    -11.24476068	     -7.49999987	    -41.95113408	     -9.57751092	     -1.55128419	     72.33016861	      8.18926627	     68.66859811	    107.05268165	     84.02233052	     68.25088579	     -3.70010022	     61.20913096	    126.07343978	     87.58293296
      6.03333330	     -6.76174775	     10.88714333	     -2.66934251	      0.62964670	      0.77198108	     -0.12543203	     72.43207615	    -21.58714148	     12.13383739	     35.25028626	      0.61523356	     -6.57676384	     10.35605133	     -7.49999987	     58.63346159	     15.59760516	     -6.07816157	     74.62476721	      1.30244789	     22.64518648	    -10.97981186	     -7.49999987	    -41.72475445	     -9.83789980	     -1.65358861	     71.95420538	      8.34119292	     69.01460061	    106.86486948	     83.10067652	     68.85918502	     -3.30894763	     61.67973118	    126.06900450	     86.58137466
      6.05000000	     -6.56440706	     10.95764745	     -2.56637489	      0.62975087	      0.77558467	     -0.12568392	     71.77451308	    -21.98696597	     11.76639262	     34.49980195	      0.60213514	     -6.35619787	     11.24681766	     -7.49999987	     57.79090950	     15.85589413	     -5.94220372	     73.99972254	      1.29153880	     22.88414078	    -10.59107348	     -7.49999987	    -41.66931271	    -10.23848171	     -1.59799736	     71.75542901	      8.19955843	     69.54156156	    107.25852877	     82.59766561	     69.74654435	     -2.47394220	     62.18590529	    126.29619817	     85.81896347
      6.06666670	     -6.34098007	     10.99398251	     -2.23542313	      0.62178721	      0.77787100	     -0.12398625	     71.25985155	    -22.44231381	     11.53704140	     34.13428202	      0.59575561	     -6.28735753	     11.87862059	     -7.49999987	     57.17845324	     16.06930408	     -5.81768449	     73.43598921	      1.28169980	     22.50167613	    -10.80197784	     -7.49999987	    -41.59549531	    -10.45770594	     -2.00793658	     72.70152127	      8.47373481	     69.43191624	    107.26927507	     82.71296570	     71.62989494	     -1.81040552	     61.76166119	    125.81916989	     85.74339222
      6.08333330	     -6.06789932	     10.84773365	     -2.01462648	      0.62189671	      0.78128441	     -0.12449163	     70.63533506	    -22.76093794	     11.10405042	     33.78387006	      0.58963977	     -6.26298982	     12.53599152	     -7.49999987	     56.61974730	     16.14669592	     -5.49027568	     72.99245552	      1.27395868	     22.10569139	    -11.07720161	     -7.49999987	    -41.35546544	    -10.53248037	     -1.63643967	     73.62394744	      8.45420118	     67.81238571	    107.66236992	     81.25165161	     71.08363400	     -2.42660678	     60.66641941	    126.15101243	     84.03469293
      6.10000000	     -5.65969067	     10.47996868	     -1.77008110	      0.62122218	      0.79313367	     -0.12453216	     69.46215615	    -23.11096974	     10.18011873	     33.23243545	      0.58001542	     -6.12752267	     13.40127328	     -7.49999987	     55.70156513	     16.23403099	     -4.76687102	     72.33969759	      1.26256590	     21.68452766	    -11.56589457	     -7.49999987	    -41.31830016	    -10.33430759	     -1.54537639	     73.48329578	      8.12346377	     67.56808694	    107.82985589	     80.49803297	     70.46725822	     -3.05024080	     60.69173181	    125.92159683	     82.99485989
      6.11666670	     -5.14152629	     10.13274555	     -1.58998867	      0.62178589	      0.80561504	     -0.12470465	     67.83825653	    -23.51108917	      9.08744802	     32.37635712	      0.56507403	     -6.13798721	     14.38804634	     -7.49999987	     54.27402049	     16.44967455	     -3.89329842	     71.22852627	      1.24317230	     21.53764674	    -11.97641994	     -7.49999987	    -41.77658072	    -10.12322014	     -1.53479402	     73.13697212	      7.67384634	     67.53700131	    107.16027951	     79.55208478	     69.50489840	     -3.93395252	     61.42751630	    125.28147021	     81.81716960
      6.13333330	     -4.71054601	      9.65905015	     -1.32758437	      0.62022164	      0.81474158	     -0.11953888	     65.98261670	    -23.77150405	      8.07497576	     31.41463526	      0.54828882	     -6.20643944	     15.06696699	     -7.49999987	     52.79658879	     16.40502478	     -3.04970632	     69.96247239	      1.22107550	     21.38691701	    -12.43986330	     -7.49999987	    -42.00105929	    -10.00848156	     -1.21696174	     72.62564820	      7.93106053	     67.31594881	    106.09043437	     79.78958210	     70.17696403	     -3.76759592	     61.78061661	    124.54413352	     81.93479271
      6.15000000	     -4.22206572	      9.18807002	     -1.03763401	      0.62090128	      0.82130490	     -0.11984772	     64.03408712	    -24.03280781	      6.94936648	     30.43303432	      0.53115665	     -5.95623816	     15.97440302	     -7.49999987	     51.17057525	     16.38584258	     -2.17056735	     68.57431708	      1.19684762	     21.07326762	    -13.10185364	     -7.49999987	    -42.03959108	     -9.93532362	     -1.33577861	     73.01628464	      7.86784901	     67.54025061	    106.48020335	     79.17877329	     72.17980369	     -2.32204932	     61.78683786	    123.93720356	     80.90561534
